<?xml version="1.0" encoding="UTF-8"?>
<svg id="Layer_2" data-name="Layer 2" xmlns="http://www.w3.org/2000/svg" viewBox="0 0 130.88 49.08">
  <g id="Layer_1-2" data-name="Layer 1">
    <path fill="white" d="M118.24,41.39c3.33-1.39,8.8-5.11,10.43-8.46,1.46-3.01,2.92-10.64,1.82-13.67-.21-.57-.48-.94-.83-1.09-.41-.19-.81-.27-1.22-.27-.5,0-.97.12-1.48.25-.56.14-1.13.29-1.79.29-.8,0-1.57-.23-2.36-.7-.25-.15-.54-.23-.83-.23-.6,0-1.17.31-1.52.84l-5.53,8.4c-.07.11-.34.41-.51.59l-.1.1-.21.19h-.22c-.38,0-.87-.35-1.04-.53-.14-.15-.21-.32-.2-.49l.3-4.46c.06-.89.15-2.22.02-2.97-.16.04-.41.14-.64.23-.55.22-1.24.49-1.97.49s-1.38-.28-1.91-.83c-.35-.37-.99-.62-1.6-.62-.41,0-.76.11-1,.32-2.56,2.2-3.6,3.72-4.6,5.19-1.01,1.48-1.97,2.88-4.32,4.79-.31.25-.6.38-.89.38-.35,0-.65-.2-.83-.54-.64-1.25.26-4.89,2.58-8.11,1.37-1.91,2.06-3.48,1.9-4.31-.05-.22-.15-.38-.34-.49-.29-.17-.62-.26-.99-.26-1.54,0-3.45,1.5-4.48,2.91-.23.31-.46.64-.68.97-.68.98-1.39,2-2.15,2.73l-4.76,4.52.07-1.26c.23-3.97.94-8.21,4.27-10.21l-1.13-.65.27-.44c3.06-4.92,5.74-10.67,4.82-12.46-.11-.21-.32-.49-.96-.53-.31,0-1.19.96-1.36,1.58-.89,3.22-2.04,6.23-3.62,9.46-1.9,3.87-2.99,3.94-7.05,4.18-.49.03-1.02.06-1.6.1l-.75.05,3.08-9.21c.55-1.66,1.46-2.96,2.19-4,.93-1.34,1.4-2.06,1.04-2.7-.15-.27-.62-.44-1.19-.44s-1.16.18-1.42.44c-1.76,1.72-3.95,4.07-5.31,7.07-.68,1.5-.9,3.25-1.1,4.79-.27,2.1-.5,3.92-1.77,4.72-2.43,1.52-4.47,1.71-6.44,1.89-1.38.12-2.67.24-4.14.78l-.52.19-.14-.53c-.26-.98-1.22-2.45-1.74-2.46h-.18c-3.58,0-5.94,3.58-8.02,6.74-1.06,1.6-2.05,3.12-3.1,3.95-.15.12-.3.18-.46.18l-.3-.03-.15-.19c-.26-.32-.17-.77.19-2.29.51-2.2,1.47-6.3-.46-6.8-.04-.01-.14-.03-.31-.03-.72,0-1.6.29-1.78.51l-4.74,5.86c-.17.21-.44.42-.71.64l-.15.11h-.17l-.29-.03-.15-.19c-.16-.21-.45-.98-.37-1.31l1.34-5.41c.18-.74.05-1.63-.69-1.83-.1-.03-.19-.04-.28-.04-.54,0-.9.68-1.43,1.79-.72,1.52-1.71,3.6-4.31,3.6-.08,0-.16,0-.25,0-1.03-.05-1.42-1.01-1.8-1.94-.37-.92-.79-1.97-1.86-2.45-.43-.19-.87-.29-1.32-.29-1.82,0-3.56,1.58-4.83,2.74l-.51.46-3.9,3.44-.28-.62c-1.21-2.67-.58-5.47-.12-7.51.29-1.28.56-2.49.16-2.82-.04-.02-.22-.07-.51-.07s-.47.04-.5.06l-3.35,2.08c-3.2,1.99-6.74,3.47-10.17,4.9l-1.08.45c-.28.12-.77.7-.89,1.01.14.23.73.65.94.67,1.56-.11,3.67-.67,5.26-1.4l6.01-2.73c.11-.05.24-.08.38-.08.4,0,1.02.2,1.32.5.18.18.21.36.21.48v4.54c0,1.22-.92,2.85-1.96,3.5l-5.92,3.71c-2.54,1.59-5,3.59-7.33,5.95C1.01,38.72-.06,41.52,0,44.57c.04,1.84,1.41,3.13,2.68,3.73,1.12.52,2.23.79,3.31.79,1.35,0,2.64-.41,3.83-1.22,3.53-2.4,6.17-5.7,7.85-9.8,1.2-2.94,1.63-5.14,1.98-6.91.4-2.05.72-3.67,2.04-5.15.22-.25.49-.5.82-.5.18,0,.34.07.46.21.3.33.27.88.14,2.43-.15,1.75-.38,4.39.31,6.4.16.47.96,1.12,1.22,1.12,1.6-.11,5.11-5.57,6.43-7.63l.41-.63c.34-.53.59-.96.8-1.32,1.06-1.85,1.29-2.05,5.85-3.09l.55-.13.06.56c.42,3.91-.11,5.49-.74,7.31-.36,1.04-.72,2.12-.95,3.78.17.17.75.44,1.12.46,1.26-.91,2.27-2.11,2.92-3.46.04-.09,4.42-8.88,5.85-8.88.28,0,.61.18.67.69.15,1.2.02,2.75-.12,4.38-.35,3.99-.74,8.51,2.48,10.76,3.44,2.4,7.28,4.06,12.45,5.38,1.12.29,2.26.63,3.36.96,2.5.76,5.09,1.54,7.7,1.7,3.39.21,6.38.31,9.15.31,3.01,0,5.78-.12,8.47-.36l10.05-.9c6.04-.54,11.79-1.94,17.1-4.17ZM17.63,30.5c-1.8,7.17-2.98,8.84-8.19,14.15-.98.99-2.88,1.45-4.23,1.45-.21,0-.42-.01-.61-.03-.91-.1-1.59-.7-1.9-1.69-.58-1.83.2-5.02,2.27-6.84.09-.08,8.97-7.69,11.93-7.69.13,0,.24.01.35.04l.5.11-.12.49ZM30.21,26.03l-3.81,5.44c-.11.16-.45.64-.95.64h0c-.26,0-.72-.13-.91-1-.46-2.08.57-7.98,3.91-9.53.18-.08.37-.13.55-.13.51,0,.96.32,1.26.91.51.97.61,2.72-.06,3.66ZM108.39,22.47c0,1.23-5.07,7.57-5.36,6.14-.53-2.6,2.13-5.04,3.95-5.86l.89-.4c.14-.06.25-.09.33-.09l.18.21ZM75.13,26.66l1.79-6.5c.25-.9,1.37-2.4,2.49-2.6l5.16-.92h.04c.18,0,.44.08.63.49,0,0,.41.89.05,1.32l-5.09,6.1-2.82,3.28c-.29.34-1.34.46-1.59.46-.68,0-.71-.5-.71-.56v-.12c-.02-.35-.03-.69.04-.95ZM64.56,23.24c.31,0,.62.03.92.08l.67.11-3.1,6.08c-.41.81-2.03,1.53-3.02,1.53-.82,0-1.06-.48-1.13-.69-.47-1.47-.13-3.2.91-4.62,1.14-1.56,2.92-2.5,4.74-2.5ZM59.7,20.63c.01.5-2.03,3.27-2.79,2.6.52-.62,1.46-1.63,1.91-2.06.46-.44.71-.62.82-.61l.06.08ZM83.58,44.25c-2.52,0-5.01-.1-7.63-.31-10.74-.87-15.03-1.6-24.66-7.01-.61-.34-1.39-1.47-1.56-2.09-.2-.76.28-2.3.9-2.83l4.49-3.91c.27-.24.52-.35.76-.35.81,0,.87.97.93,1.99.06.96.14,2.27.73,2.73.61.48,1.41.73,2.31.73.97,0,1.97-.29,2.74-.81,2.94-1.95,3.94-4.03,4.81-5.86,1.05-2.2,1.96-4.09,5.79-4.54l.69-.08-.99,4.78c-.16.79.33,2.69.89,3.01.75.44,1.5.66,2.23.66,1.56,0,2.82-1.02,3.59-1.88l3.48-3.84c.25-.28.54-.54.87-.54l.31.04.15.16c.29.32.24.85.14,1.91-.14,1.42-.34,3.56.63,4.27.1.08.2.11.31.11.76,0,1.95-1.61,2.99-3.02,1.15-1.55,2.33-3.16,3.62-3.83l.74-.39-.04,5.38c0,.49.65,1.76,1.07,2.06.2.15.74.29,1.39.29.55,0,.9-.11,1.03-.21l3.54-2.57.38.44c.62.72,1.46,1.7,2.31,2.26.11.07.28.11.5.11.95,0,2.33-.7,2.79-1.17l3.27-3.34.52-.42.32.61c.38.74,1.1,2.13,1.68,2.54.51.36,1.09.55,1.73.55,1.46,0,3.06-1.03,3.81-2.46l.97-1.86.35,1.18c.06.19.11.4.17.62.18.66.45,1.66.72,1.91.01.01.04.03.12.03.57,0,1.7-.96,1.92-1.64,1.41-4.33,5.04-7.37,6.47-7.37.37,0,.59.17.7.31.18.22.24.53.17.9l-1.45,7.4c-.61,3.1-2.54,5.78-5.43,7.53-3.29,1.99-6.22,3.33-8.94,4.1-3.06.86-6.22,1.76-9.46,2.1l-10.46,1.1c-3.17.33-6.24.5-9.4.5Z"/>
  </g>
</svg>